<?xml version="1.0" encoding="utf-8"?>
<!-- Generator: Adobe Illustrator 25.1.0, SVG Export Plug-In . SVG Version: 6.00 Build 0)  -->
<svg version="1.1" id="Слой_1" xmlns="http://www.w3.org/2000/svg" xmlns:xlink="http://www.w3.org/1999/xlink" x="0px" y="0px"
	 viewBox="0 0 166.3 181.8" style="enable-background:new 0 0 166.3 181.8;" xml:space="preserve">
<style type="text/css">
	.st0{fill:#6D6D6D;}
	.st1{fill:#5A5A59;}
	.st2{fill:#0061A3;}
	.st3{fill:#0089C5;}
	.st4{fill:#5A5A59;stroke:#000000;stroke-width:0.25;stroke-miterlimit:10;}
</style>
<path class="st0" d="M21,129.1c3,0,4.9-1.6,4.9-3.8c0-2.1-1.8-3.1-3-3.2c1.2-0.2,2.8-1.2,2.8-3.1c0-2.2-2.1-3.5-4.7-3.5
	c-2.1,0-3.8,0.9-4.8,2l0.9,1c1-1,2.2-1.6,3.7-1.6c1.7,0,3.2,0.8,3.2,2.3c0,1.5-1.4,2.2-3.2,2.2h-2.7v1.5h2.7c2,0,3.4,0.7,3.4,2.3
	c0,1.5-1.2,2.5-3.3,2.5c-1.6,0-3.2-0.7-4-1.8l-1,1C16.9,128.1,18.7,129.1,21,129.1z M39.8,128.9l-5.3-13.2h-2l-5.3,13.2h1.9l1.2-2.9
	h6.6l1.2,2.9H39.8z M36.3,124.5h-5.6l2.8-7.1L36.3,124.5z M52.5,128.9v-13.2h-11v13.2h1.6v-11.7h7.7v11.7H52.5z M61.6,129.1
	c3.9,0,6.5-2.9,6.5-6.8c0-3.9-2.6-6.8-6.5-6.8c-3.9,0-6.5,2.9-6.5,6.8C55.1,126.2,57.7,129.1,61.6,129.1z M61.6,127.6
	c-3,0-4.8-2.3-4.8-5.4c0-3.1,1.9-5.4,4.8-5.4c2.9,0,4.8,2.3,4.8,5.4C66.5,125.3,64.6,127.6,61.6,127.6z M69.1,129.1
	c2.4,0,3.9-0.9,4.6-6.7l0.7-5.3h5v11.7H81v-13.2h-8.1l-0.8,6.6c-0.6,4.5-1.4,5.3-3,5.3V129.1z M85.4,128.9l3.4-5.2h2.6v5.2H93v-13.2
	h-5.3c-2.4,0-4.1,1.5-4.1,4c0,2.4,1.6,3.7,3.4,3.8l-3.6,5.4H85.4z M87.9,122.2c-1.5,0-2.6-1-2.6-2.5s1.1-2.5,2.6-2.5h3.5v5H87.9z
	 M97.7,128.9v-5.2h3.7c2.6,0,4.1-1.8,4.1-4c0-2.2-1.5-4-4.1-4h-5.3v13.2H97.7z M101.2,122.2h-3.5v-5h3.5c1.6,0,2.6,1,2.6,2.5
	S102.8,122.2,101.2,122.2z M118.7,128.9v-13.2H117v5.7h-7.7v-5.7h-1.6v13.2h1.6v-6h7.7v6H118.7z M133.1,128.9l-5.3-13.2h-2
	l-5.3,13.2h1.9l1.2-2.9h6.6l1.2,2.9H133.1z M129.5,124.5h-5.6l2.8-7.1L129.5,124.5z M136.1,128.9l3.4-5.2h2.6v5.2h1.6v-13.2h-5.3
	c-2.4,0-4.2,1.5-4.2,4c0,2.4,1.6,3.7,3.4,3.8l-3.6,5.4H136.1z M138.6,122.2c-1.5,0-2.6-1-2.6-2.5s1.1-2.5,2.6-2.5h3.5v5H138.6z"/>
<path class="st1" d="M16.3,82.6h-4.7v-6.3H6.1v17.2h5.5v-6.1h4.7v6.1h5.5V76.2h-5.5V82.6z M67.8,82.6H63v-6.3h-5.5v17.2H63v-6.1h4.7
	v6.1h5.5V76.2h-5.5V82.6z M152.3,81.3h-2.7v-5h-5.5v17.2h8.2c3.6,0,6.5-2,6.5-5.5v-1.2C158.8,83.3,155.9,81.3,152.3,81.3z
	 M151.7,89.2h-2.1v-3.7h1.9c1.6,0,1.9,1.1,1.9,1.9C153.5,88.9,152.2,89.2,151.7,89.2z M116.6,86.9h6.2v-4.1h-6.2v-2.1h6.8v-4.5H111
	v17.2h12.9V89h-7.3L116.6,86.9L116.6,86.9z M109.7,76.2h-6l-2.9,6.5h-1.4v-6.5h-5.5v17.2h5.5v-6.1h1.4l3,6.1h6.3l-4.7-8.7
	L109.7,76.2z M33,76h-2.7c-3.6,0-6.5,2.6-6.5,6.5v4.8c0,4,2.9,6.5,6.5,6.5H33c3.6,0,6.5-2.6,6.5-6.5v-4.8C39.5,78.3,36.5,76,33,76z
	 M33.9,87.7c0,1.1-0.9,2.1-2.1,2.1h-0.5c-1.1,0-2.1-0.9-2.1-2.1v-5.6c0-1.1,0.9-2.1,2.1-2.1h0.5c1.1,0,2.1,0.9,2.1,2.1V87.7z
	 M128,85.4c0,2.6-0.7,3-1.7,3.5c-0.4,0.2-1.6,0.1-1.6,0.1v4.5h2.2c4.7,0,6.4-2.7,6.5-8.8c0-1.4,0-2.7,0-3.9h3.1v12.8h5.5V76.3h-14
	V85.4z M49.5,76.2h-8.2v17.2h5.5v-4.2h2.7c3.6,0,6.5-2,6.5-5.5v-2C56.1,78.2,53.1,76.2,49.5,76.2z M50.7,83.2c0,0.6-0.3,1.9-1.9,1.9
	h-1.9v-4.5H49c0.6,0,1.7,0.4,1.7,1.8L50.7,83.2L50.7,83.2z M80.9,84.9v-8.7h-5.2v17.2h4.9l5.7-8.6v8.6h5.2V76.2h-4.9L80.9,84.9z"/>
<path class="st2" d="M67.3,40.9l25.8,17.4V24.1L67.3,6.7V40.9z"/>
<path class="st3" d="M67.3,6.7C53,6.7,41.4,18.2,41.4,32.5S53,58.3,67.2,58.3L67.3,6.7L67.3,6.7z"/>
<path class="st3" d="M93.1,58.3c14.2,0,25.8-11.6,25.8-25.8S107.3,6.7,93.1,6.7V58.3z"/>
<rect x="5.5" y="104.9" class="st4" width="153" height="0.6"/>
<path class="st0" d="M12.1,152.9c2.3,0,3.9-1.1,5-2.6l-1.4-0.8c-0.8,1.1-2.1,1.9-3.6,1.9c-2.9,0-5.1-2.2-5.1-5.4
	c0-3.1,2.2-5.4,5.1-5.4c1.5,0,2.9,0.8,3.6,1.9l1.4-0.8c-1-1.5-2.7-2.6-5-2.6c-3.8,0-6.8,2.8-6.8,6.8C5.3,150.2,8.3,152.9,12.1,152.9
	z M24.1,152.7V141h4.2v-1.5h-10v1.5h4.2v11.7H24.1z M32.1,152.7v-5.2h3.7c2.6,0,4.1-1.8,4.1-4c0-2.2-1.5-4-4.1-4h-5.3v13.2H32.1z
	 M35.6,146h-3.5v-5h3.5c1.6,0,2.6,1,2.6,2.5C38.2,145,37.1,146,35.6,146z M48.1,152.9c3.9,0,6.5-2.9,6.5-6.8c0-3.9-2.6-6.8-6.5-6.8
	c-3.9,0-6.5,2.9-6.5,6.8C41.5,150,44.2,152.9,48.1,152.9z M48.1,151.5c-3,0-4.8-2.3-4.8-5.4c0-3.1,1.9-5.4,4.8-5.4
	c2.9,0,4.8,2.3,4.8,5.4C52.9,149.2,51,151.5,48.1,151.5z M58.8,152.7l7.7-10.5v10.5h1.6v-13.2h-1.7l-7.6,10.3v-10.3h-1.6v13.2H58.8z
	 M76.1,152.7V141h4.2v-1.5h-10v1.5h4.2v11.7H76.1z M91.1,152.7v-1.5h-7v-4.5h6.9v-1.5h-6.9V141h7v-1.5h-8.6v13.2H91.1z M92.8,152.9
	c2.4,0,3.9-0.9,4.6-6.7l0.7-5.3h5v11.7h1.6v-13.2h-8.1l-0.8,6.6c-0.6,4.5-1.4,5.3-3,5.3V152.9z M107.8,139.5v13.2h5.3
	c2.6,0,4.1-1.8,4.1-4c0-2.2-1.5-4-4.1-4h-3.7v-5.2H107.8z M112.9,146.2c1.6,0,2.6,1,2.6,2.5c0,1.5-1.1,2.5-2.6,2.5h-3.5v-5H112.9z
	 M130.4,152.7v-13.2h-1.6v5.7H121v-5.7h-1.6v13.2h1.6v-6h7.7v6H130.4z M144.7,152.7l-5.3-13.2h-2l-5.3,13.2h1.9l1.2-2.9h6.6l1.2,2.9
	H144.7z M141.2,148.3h-5.6l2.8-7.1L141.2,148.3z M147.8,152.7l3.4-5.2h2.6v5.2h1.6v-13.2h-5.3c-2.4,0-4.1,1.5-4.1,4
	c0,2.4,1.6,3.7,3.4,3.8l-3.6,5.4H147.8z M150.3,146c-1.5,0-2.6-1-2.6-2.5c0-1.5,1.1-2.5,2.6-2.5h3.5v5H150.3z"/>
<path class="st0" d="M37,175.8l-6-6.9l5.5-6.3h-2.1l-5.8,6.8v-6.8H27v13.2h1.6v-4.4l1.3-1.5l5,5.9H37z M43.8,176
	c3.9,0,6.5-2.9,6.5-6.8c0-3.9-2.6-6.8-6.5-6.8c-3.9,0-6.5,2.9-6.5,6.8C37.3,173.1,39.9,176,43.8,176z M43.8,174.6
	c-3,0-4.8-2.3-4.8-5.4c0-3.1,1.9-5.4,4.8-5.4c2.9,0,4.8,2.3,4.8,5.4C48.7,172.3,46.8,174.6,43.8,174.6z M65.8,175.8v-13.2h-2.4
	l-4.1,9.9l-4.1-9.9h-2.4v13.2h1.6v-10.9l4.5,10.9h0.7l4.5-10.9v10.9H65.8z M79.9,175.8v-13.2h-11v13.2h1.6v-11.7h7.7v11.7H79.9z
	 M94.3,175.8l-5.3-13.2h-2l-5.3,13.2h1.9l1.2-2.9h6.6l1.2,2.9H94.3z M90.7,171.4h-5.6l2.8-7.1L90.7,171.4z M107,175.8v-13.2h-1.6
	v5.7h-7.7v-5.7H96v13.2h1.6v-6h7.7v6H107z M111.6,175.8l7.7-10.5v10.5h1.6v-13.2h-1.7l-7.6,10.3v-10.3H110v13.2H111.6z M125.3,175.8
	l3.4-5.2h2.6v5.2h1.6v-13.2h-5.3c-2.4,0-4.2,1.5-4.2,4c0,2.4,1.6,3.7,3.4,3.8l-3.6,5.4H125.3z M127.9,169.1c-1.5,0-2.6-1-2.6-2.5
	c0-1.5,1.1-2.5,2.6-2.5h3.5v5H127.9z"/>
</svg>
